<?xml version="1.0" encoding="us-ascii" standalone="no"?><svg xmlns="http://www.w3.org/2000/svg" xmlns:xlink="http://www.w3.org/1999/xlink" contentStyleType="text/css" height="1297px" preserveAspectRatio="none" style="width:2652px;height:1297px;background:#FFFFFF;" version="1.1" viewBox="0 0 2652 1297" width="2652px" zoomAndPan="magnify"><defs/><g><!--cluster prog--><g id="cluster_prog"><path d="M622.07,396 L1551.07,396 A12.5,12.5 0 0 1 1563.57,408.5 L1563.57,417.2969 L609.57,417.2969 L609.57,408.5 A12.5,12.5 0 0 1 622.07,396 " fill="#F1F1F1" style="stroke:#F1F1F1;stroke-width:1.0;"/><rect fill="none" height="612" rx="12.5" ry="12.5" style="stroke:#181818;stroke-width:0.5;" width="954" x="609.57" y="396"/><line style="stroke:#181818;stroke-width:0.5;" x1="609.57" x2="1563.57" y1="417.2969" y2="417.2969"/><text fill="#000000" font-family="sans-serif" font-size="14" lengthAdjust="spacing" textLength="146" x="1013.57" y="413.9951">Ebenen-Kalibrierung</text></g><g id="prog._m"><rect fill="#F1F1F1" height="92.1719" rx="12.5" ry="12.5" style="stroke:#181818;stroke-width:0.5;" width="156" x="861.57" y="468"/><line style="stroke:#181818;stroke-width:0.5;" x1="861.57" x2="1017.57" y1="494.2969" y2="494.2969"/><text fill="#000000" font-family="sans-serif" font-size="14" lengthAdjust="spacing" textLength="77" x="901.07" y="485.9951">Motor l&#228;uft</text><text fill="#000000" font-family="sans-serif" font-size="12" lengthAdjust="spacing" textLength="136" x="866.57" y="510.4355">Lift geht hoch (+, auf)</text><text fill="#000000" font-family="sans-serif" font-size="12" lengthAdjust="spacing" textLength="110" x="866.57" y="524.4043">oder runter (-, ab)</text><text fill="#000000" font-family="sans-serif" font-size="12" lengthAdjust="spacing" textLength="79" x="866.57" y="538.373">Starte Motor;</text><text fill="#000000" font-family="sans-serif" font-size="12" lengthAdjust="spacing" textLength="85" x="866.57" y="552.3418">SchrittZ+-=1;</text></g><g id="prog.e"><rect fill="#F1F1F1" height="64.2344" rx="12.5" ry="12.5" style="stroke:#181818;stroke-width:0.5;" width="151" x="1120.07" y="637"/><line style="stroke:#181818;stroke-width:0.5;" x1="1120.07" x2="1271.07" y1="663.2969" y2="663.2969"/><text fill="#000000" font-family="sans-serif" font-size="14" lengthAdjust="spacing" textLength="100" x="1145.57" y="654.9951">Ebene w&#228;hlen</text><text fill="#000000" font-family="sans-serif" font-size="12" lengthAdjust="spacing" textLength="131" x="1125.07" y="679.4355">Ebene mit +/- w&#228;hlen</text><text fill="#000000" font-family="sans-serif" font-size="12" lengthAdjust="spacing" textLength="85" x="1125.07" y="693.4043">Stoppe Motor;</text></g><g id="prog.start"><rect fill="#F1F1F1" height="78.2031" rx="12.5" ry="12.5" style="stroke:#181818;stroke-width:0.5;" width="105" x="887.07" y="800"/><line style="stroke:#181818;stroke-width:0.5;" x1="887.07" x2="992.07" y1="826.2969" y2="826.2969"/><text fill="#000000" font-family="sans-serif" font-size="14" lengthAdjust="spacing" textLength="34" x="922.57" y="817.9951">Start</text><text fill="#000000" font-family="sans-serif" font-size="12" lengthAdjust="spacing" textLength="81" x="892.07" y="842.4355">Text: "Bereit"</text><text fill="#000000" font-family="sans-serif" font-size="12" lengthAdjust="spacing" textLength="50" x="892.07" y="856.4043">LCD ein;</text><text fill="#000000" font-family="sans-serif" font-size="12" lengthAdjust="spacing" textLength="85" x="892.07" y="870.373">Stoppe Motor;</text></g><text fill="#000000" font-family="sans-serif" font-size="14" lengthAdjust="spacing" textLength="26" x="1432.57" y="1026.9951">exit</text><rect fill="#F1F1F1" height="12" style="stroke:#181818;stroke-width:1.5;" width="12" x="1439.57" y="1002"/><text fill="#000000" font-family="sans-serif" font-size="14" lengthAdjust="spacing" textLength="37" x="1527.07" y="374.6982">entry</text><rect fill="#F1F1F1" height="12" style="stroke:#181818;stroke-width:1.5;" width="12" x="1539.57" y="390"/><g id="ZLs"><rect fill="#F1F1F1" height="64.2344" rx="12.5" ry="12.5" style="stroke:#181818;stroke-width:0.5;" width="178" x="2302.57" y="976"/><line style="stroke:#181818;stroke-width:0.5;" x1="2302.57" x2="2480.57" y1="1002.2969" y2="1002.2969"/><text fill="#000000" font-family="sans-serif" font-size="14" lengthAdjust="spacing" textLength="63" x="2360.07" y="993.9951">ZL Stopp</text><text fill="#000000" font-family="sans-serif" font-size="12" lengthAdjust="spacing" textLength="158" x="2307.57" y="1018.4355">Not-Stopp Lichtschranken</text><text fill="#000000" font-family="sans-serif" font-size="12" lengthAdjust="spacing" textLength="85" x="2307.57" y="1032.4043">Stoppe Motor;</text></g><g id="ZLo"><rect fill="#F1F1F1" height="78.2031" rx="12.5" ry="12.5" style="stroke:#181818;stroke-width:0.5;" width="160" x="1570.57" y="235"/><line style="stroke:#181818;stroke-width:0.5;" x1="1570.57" x2="1730.57" y1="261.2969" y2="261.2969"/><text fill="#000000" font-family="sans-serif" font-size="14" lengthAdjust="spacing" textLength="140" x="1580.57" y="252.9951">ZL Anschl oben - E0</text><text fill="#000000" font-family="sans-serif" font-size="12" lengthAdjust="spacing" textLength="85" x="1575.57" y="277.4355">Stoppe Motor;</text><text fill="#000000" font-family="sans-serif" font-size="12" lengthAdjust="spacing" textLength="71" x="1575.57" y="291.4043">SchrittZ=0;</text><text fill="#000000" font-family="sans-serif" font-size="12" lengthAdjust="spacing" textLength="93" x="1575.57" y="305.373">store(SchrittZ);</text></g><g id="m"><rect fill="#F1F1F1" height="92.1719" rx="12.5" ry="12.5" style="stroke:#181818;stroke-width:0.5;" width="172" x="2177.57" y="793"/><line style="stroke:#181818;stroke-width:0.5;" x1="2177.57" x2="2349.57" y1="819.2969" y2="819.2969"/><text fill="#000000" font-family="sans-serif" font-size="14" lengthAdjust="spacing" textLength="77" x="2225.07" y="810.9951">Motor l&#228;uft</text><text fill="#000000" font-family="sans-serif" font-size="12" lengthAdjust="spacing" textLength="152" x="2182.57" y="835.4355">Lift geht hoch (+, m-auf)</text><text fill="#000000" font-family="sans-serif" font-size="12" lengthAdjust="spacing" textLength="136" x="2182.57" y="849.4043">oder runter (-, m-abw)</text><text fill="#000000" font-family="sans-serif" font-size="12" lengthAdjust="spacing" textLength="79" x="2182.57" y="863.373">Starte Motor;</text><text fill="#000000" font-family="sans-serif" font-size="12" lengthAdjust="spacing" textLength="85" x="2182.57" y="877.3418">SchrittZ+-=1;</text></g><g id="mI"><rect fill="#F1F1F1" height="64.2344" rx="12.5" ry="12.5" style="stroke:#181818;stroke-width:0.5;" width="132" x="1741.57" y="1131"/><line style="stroke:#181818;stroke-width:0.5;" x1="1741.57" x2="1873.57" y1="1157.2969" y2="1157.2969"/><text fill="#000000" font-family="sans-serif" font-size="14" lengthAdjust="spacing" textLength="112" x="1751.57" y="1148.9951">Motor l&#228;uft - Init</text><text fill="#000000" font-family="sans-serif" font-size="12" lengthAdjust="spacing" textLength="81" x="1746.57" y="1173.4355">Initialisierung</text><text fill="#000000" font-family="sans-serif" font-size="12" lengthAdjust="spacing" textLength="81" x="1746.57" y="1187.4043">SchrittZ+=1;</text></g><g id="Ex"><rect fill="#F1F1F1" height="92.1719" rx="12.5" ry="12.5" style="stroke:#181818;stroke-width:0.5;" width="229" x="1832.07" y="962"/><line style="stroke:#181818;stroke-width:0.5;" x1="1832.07" x2="2061.07" y1="988.2969" y2="988.2969"/><text fill="#000000" font-family="sans-serif" font-size="14" lengthAdjust="spacing" textLength="17" x="1938.07" y="979.9951">Ex</text><text fill="#000000" font-family="sans-serif" font-size="12" lengthAdjust="spacing" textLength="209" x="1837.07" y="1004.4355">Auf einer Ebene (1-16) positioniert</text><text fill="#000000" font-family="sans-serif" font-size="12" lengthAdjust="spacing" textLength="117" x="1837.07" y="1018.4043">Bereit f&#252;r RR Befehl</text><text fill="#000000" font-family="sans-serif" font-size="12" lengthAdjust="spacing" textLength="85" x="1837.07" y="1032.373">Stoppe Motor;</text><text fill="#000000" font-family="sans-serif" font-size="12" lengthAdjust="spacing" textLength="93" x="1837.07" y="1046.3418">store(SchrittZ);</text></g><g id="Ein"><rect fill="#F1F1F1" height="64.2344" rx="12.5" ry="12.5" style="stroke:#181818;stroke-width:0.5;" width="120" x="1688.57" y="90.5"/><line style="stroke:#181818;stroke-width:0.5;" x1="1688.57" x2="1808.57" y1="116.7969" y2="116.7969"/><text fill="#000000" font-family="sans-serif" font-size="14" lengthAdjust="spacing" textLength="22" x="1737.57" y="108.4951">Ein</text><text fill="#000000" font-family="sans-serif" font-size="12" lengthAdjust="spacing" textLength="85" x="1693.57" y="132.9355">Stoppe Motor;</text><text fill="#000000" font-family="sans-serif" font-size="12" lengthAdjust="spacing" textLength="100" x="1693.57" y="146.9043">SchrittZ=read();</text></g><ellipse cx="1748.57" cy="16" fill="#222222" rx="10" ry="10" style="stroke:#222222;stroke-width:1.0;"/><ellipse cx="1807.57" cy="1267" fill="none" rx="11" ry="11" style="stroke:#222222;stroke-width:1.0;"/><ellipse cx="1807.57" cy="1267" fill="#222222" rx="6" ry="6" style="stroke:#222222;stroke-width:1.0;"/><g id="elem_GMN55"><path d="M1843.57,87 L1843.57,118.5 L1808.7,122.5 L1843.57,126.5 L1843.57,157.5313 A0,0 0 0 0 1843.57,157.5313 L2123.57,157.5313 A0,0 0 0 0 2123.57,157.5313 L2123.57,97 L2113.57,87 L1843.57,87 A0,0 0 0 0 1843.57,87 " fill="#FEFFDD" style="stroke:#181818;stroke-width:0.5;"/><path d="M2113.57,87 L2113.57,97 L2123.57,97 L2113.57,87 " fill="#FEFFDD" style="stroke:#181818;stroke-width:0.5;"/><text fill="#000000" font-family="sans-serif" font-size="13" lengthAdjust="spacing" textLength="212" x="1849.57" y="104.0669">IR_* = Interrupt / Sensor / Befehl</text><text fill="#000000" font-family="sans-serif" font-size="13" lengthAdjust="spacing" textLength="259" x="1849.57" y="119.1997">IR_Ex = RR Befehl Ebene x anzusteuern</text><text fill="#000000" font-family="sans-serif" font-size="13" lengthAdjust="spacing" textLength="78" x="1849.57" y="134.3325">ZL = Zuglift</text><text fill="#000000" font-family="sans-serif" font-size="13" lengthAdjust="spacing" textLength="130" x="1849.57" y="149.4653">Ex = Ebene x (0-16)</text></g><!--link *start* to Ein--><g id="link_*start*_Ein"><path d="M1748.57,26.27 C1748.57,40.46 1748.57,62.21 1748.57,84.11 " fill="none" id="*start*-to-Ein" style="stroke:#181818;stroke-width:1.0;"/><polygon fill="#181818" points="1748.57,90.11,1752.57,81.11,1748.57,85.11,1744.57,81.11,1748.57,90.11" style="stroke:#181818;stroke-width:1.0;"/></g><!--link Ein to *end*--><g id="link_Ein_*end*"><path d="M1688.47,124.26 C1438.41,128.2 493.57,151.15 493.57,273 C493.57,273 493.57,273 493.57,1164 C493.57,1290.75 6,1168.38 931.57,1226 C1285.61,1248.04 1714.8534,1262.8994 1790.2034,1265.4194 " fill="none" id="Ein-to-*end*" style="stroke:#AAAAAA;stroke-width:1.0;stroke-dasharray:7.0,7.0;"/><polygon fill="#AAAAAA" points="1796.2,1265.62,1787.3387,1261.3214,1791.2028,1265.4529,1787.0713,1269.3169,1796.2,1265.62" style="stroke:#AAAAAA;stroke-width:1.0;"/></g><!--link Ein to ZLo--><g id="link_Ein_ZLo"><path d="M1728.03,154.84 C1712.76,178.13 1695.1503,205.0026 1678.9003,229.7826 " fill="none" id="Ein-to-ZLo" style="stroke:#181818;stroke-width:1.0;"/><polygon fill="#181818" points="1675.61,234.8,1683.8903,229.4674,1678.3519,230.6188,1677.2005,225.0804,1675.61,234.8" style="stroke:#181818;stroke-width:1.0;"/><text fill="#000000" font-family="sans-serif" font-size="13" lengthAdjust="spacing" textLength="44" x="1705.57" y="201.0669">IR_ZLo</text></g><!--link Ein to mI--><g id="link_Ein_mI"><path d="M1760.23,154.5 C1770.41,184.4 1783.57,231.15 1783.57,273 C1783.57,273 1783.57,273 1780.57,599.5 C1780.57,802.37 1797.8372,1039.9387 1804.5572,1124.9487 " fill="none" id="Ein-to-mI" style="stroke:#181818;stroke-width:1.0;"/><polygon fill="#181818" points="1805.03,1130.93,1808.3083,1121.6428,1804.636,1125.9455,1800.3332,1122.2732,1805.03,1130.93" style="stroke:#181818;stroke-width:1.0;"/><text fill="#000000" font-family="sans-serif" font-size="13" lengthAdjust="spacing" textLength="77" x="1784.57" y="603.0669">IR_Ex [x=0]</text></g><!--link Ein to Ex--><g id="link_Ein_Ex"><path d="M1803.51,154.66 C1841.62,180.77 1885.57,221.95 1885.57,273 C1885.57,273 1885.57,273 1885.57,840 C1885.57,883.21 1901.1145,923.7546 1917.6445,956.4746 " fill="none" id="Ein-to-Ex" style="stroke:#181818;stroke-width:1.0;"/><polygon fill="#181818" points="1920.35,961.83,1919.862,951.9932,1918.0954,957.3672,1912.7215,955.6006,1920.35,961.83" style="stroke:#181818;stroke-width:1.0;"/><text fill="#000000" font-family="sans-serif" font-size="13" lengthAdjust="spacing" textLength="148" x="1886.57" y="518.5669">SchrittZ in SchrittZ(Ex)</text></g><!--link Ex to m--><g id="link_Ex_m"><path d="M2036.8,961.81 C2055.93,952.08 2075.96,941.78 2094.57,932 C2123.11,917.01 2148.8835,903.1147 2176.4735,888.0547 " fill="none" id="Ex-to-m" style="stroke:#181818;stroke-width:1.0;"/><polygon fill="#181818" points="2181.74,885.18,2171.9238,885.9811,2177.3513,887.5756,2175.7567,893.0031,2181.74,885.18" style="stroke:#181818;stroke-width:1.0;"/><text fill="#000000" font-family="sans-serif" font-size="13" lengthAdjust="spacing" textLength="77" x="2122.57" y="928.0669">IR_Ex [x&gt;0]</text></g><!--link m to Ex--><g id="link_m_Ex"><path d="M2177.43,847.84 C2091.16,857.69 1967.05,877.97 1937.57,915 C1927.28,927.93 1925.6204,939.4516 1928.6404,955.6516 " fill="none" id="m-to-Ex" style="stroke:#181818;stroke-width:1.0;"/><polygon fill="#181818" points="1929.74,961.55,1932.0229,951.9694,1928.8237,956.6347,1924.1584,953.4355,1929.74,961.55" style="stroke:#181818;stroke-width:1.0;"/><text fill="#000000" font-family="sans-serif" font-size="13" lengthAdjust="spacing" textLength="147" x="1938.57" y="928.0669">SchrittZ = SchrittZ(Ex)</text></g><!--link Ex to mI--><g id="link_Ex_mI"><path d="M1864.1,1054.07 C1852.75,1062.87 1842.09,1072.88 1833.57,1084 C1823.16,1097.6 1818.2561,1109.7694 1814.4361,1125.0394 " fill="none" id="Ex-to-mI" style="stroke:#181818;stroke-width:1.0;"/><polygon fill="#181818" points="1812.98,1130.86,1819.0446,1123.0998,1814.1934,1126.0095,1811.2837,1121.1583,1812.98,1130.86" style="stroke:#181818;stroke-width:1.0;"/><text fill="#000000" font-family="sans-serif" font-size="13" lengthAdjust="spacing" textLength="77" x="1834.57" y="1097.0669">IR_Ex [x=0]</text></g><!--link Ex to *end*--><g id="link_Ex_*end*"><path d="M2061.34,1030.1 C2105.76,1044.04 2141.49,1066.33 2120.57,1101 C2049.81,1218.29 1870.7355,1255.4365 1824.2255,1263.3265 " fill="none" id="Ex-to-*end*" style="stroke:#AAAAAA;stroke-width:1.0;stroke-dasharray:7.0,7.0;"/><polygon fill="#AAAAAA" points="1818.31,1264.33,1827.8522,1266.7684,1823.2396,1263.4937,1826.5142,1258.8811,1818.31,1264.33" style="stroke:#AAAAAA;stroke-width:1.0;"/></g><!--link Ex to Ex--><g id="link_Ex_Ex"><path d="M2061.28,993.17 C2081.76,995.1 2096.07,1000.04 2096.07,1008 C2096.07,1015.96 2087.7335,1020.3371 2067.2535,1022.2671 " fill="none" id="Ex-to-Ex" style="stroke:#181818;stroke-width:1.0;"/><polygon fill="#181818" points="2061.28,1022.83,2070.6156,1025.968,2066.2579,1022.3609,2069.865,1018.0032,2061.28,1022.83" style="stroke:#181818;stroke-width:1.0;"/><text fill="#000000" font-family="sans-serif" font-size="13" lengthAdjust="spacing" textLength="176" x="2102.07" y="1012.5669">IR_ZLs (Zug f&#228;hrt ein / aus)</text></g><!--link m to ZLs--><g id="link_m_ZLs"><path d="M2349.9,862.38 C2376.2,873.68 2402.2,890.42 2417.57,915 C2429.1,933.44 2424.7726,951.7587 2415.1126,970.4687 " fill="none" id="m-to-ZLs" style="stroke:#FF0000;stroke-width:1.0;"/><polygon fill="#FF0000" points="2412.36,975.8,2420.0431,969.638,2414.6538,971.3572,2412.9346,965.9679,2412.36,975.8" style="stroke:#FF0000;stroke-width:1.0;"/><text fill="#000000" font-family="sans-serif" font-size="13" lengthAdjust="spacing" textLength="103" x="2423.57" y="928.0669">IR_ZLu [m-abw]</text></g><!--link m to ZLs--><g id="link_m_ZLs"><path d="M2245.02,885.44 C2241.55,901.1 2241.23,918.16 2249.57,932 C2257.78,945.61 2281.4003,959.4169 2311.1103,973.3869 " fill="none" id="m-to-ZLs-1" style="stroke:#FF0000;stroke-width:1.0;"/><polygon fill="#FF0000" points="2316.54,975.94,2310.0975,968.4905,2312.0153,973.8124,2306.6934,975.7301,2316.54,975.94" style="stroke:#FF0000;stroke-width:1.0;"/><text fill="#000000" font-family="sans-serif" font-size="13" lengthAdjust="spacing" textLength="43" x="2250.57" y="928.0669">IR_ZLs</text></g><!--link ZLs to m--><g id="link_ZLs_m"><path d="M2365.67,975.92 C2354.68,962.53 2341.84,946.63 2330.57,932 C2319,916.97 2310.2129,905.1369 2299.3329,890.1369 " fill="none" id="ZLs-to-m" style="stroke:#181818;stroke-width:1.0;"/><polygon fill="#181818" points="2295.81,885.28,2297.8564,894.9139,2298.7457,889.3274,2304.3322,890.2168,2295.81,885.28" style="stroke:#181818;stroke-width:1.0;"/><text fill="#000000" font-family="sans-serif" font-size="13" lengthAdjust="spacing" textLength="77" x="2331.57" y="928.0669">IR_Ex [x&gt;0]</text></g><!--link m to *end*--><g id="link_m_*end*"><path d="M2349.91,852.29 C2420.75,864.36 2512.94,885.29 2535.57,915 C2562.04,949.76 2645.55,889.64 2498.57,1054 C2303.68,1271.94 1897.1369,1268.9726 1824.5869,1266.6426 " fill="none" id="m-to-*end*" style="stroke:#AAAAAA;stroke-width:1.0;stroke-dasharray:7.0,7.0;"/><polygon fill="#AAAAAA" points="1818.59,1266.45,1827.457,1270.7368,1823.5874,1266.6105,1827.7138,1262.741,1818.59,1266.45" style="stroke:#AAAAAA;stroke-width:1.0;"/></g><!--link m to ZLo--><g id="link_m_ZLo"><path d="M2185.04,792.78 C2145.38,763.58 2105.57,721.45 2105.57,670 C2105.57,395 2105.57,395 2105.57,395 C2105.57,318.36 1867.1529,290.0532 1736.5929,280.1632 " fill="none" id="m-to-ZLo" style="stroke:#FF0000;stroke-width:1.0;"/><polygon fill="#FF0000" points="1730.61,279.71,1739.2822,284.3784,1735.5957,280.0877,1739.8864,276.4012,1730.61,279.71" style="stroke:#FF0000;stroke-width:1.0;"/><text fill="#000000" font-family="sans-serif" font-size="13" lengthAdjust="spacing" textLength="97" x="2106.57" y="518.5669">IR_ZLo [m-auf]</text></g><!--link ZLo to m--><g id="link_ZLo_m"><path d="M1730.87,282.16 C1899.41,298.26 2274.57,340.25 2274.57,395 C2274.57,395 2274.57,395 2274.57,670 C2274.57,711.65 2271.706,753.014 2268.676,786.794 " fill="none" id="ZLo-to-m" style="stroke:#181818;stroke-width:1.0;"/><polygon fill="#181818" points="2268.14,792.77,2272.9281,784.1633,2268.5867,787.79,2264.96,783.4486,2268.14,792.77" style="stroke:#181818;stroke-width:1.0;"/><text fill="#000000" font-family="sans-serif" font-size="13" lengthAdjust="spacing" textLength="77" x="2275.57" y="518.5669">IR_Ex [x&gt;0]</text></g><!--link ZLs to *end*--><g id="link_ZLs_*end*"><path d="M2348.23,1040.07 C2290.44,1080.35 2183.87,1150.67 2084.57,1195 C2041.31,1214.32 2028.36,1213.82 1982.57,1226 C1920.83,1242.42 1851.6277,1256.9849 1824.1677,1262.6149 " fill="none" id="ZLs-to-*end*" style="stroke:#AAAAAA;stroke-width:1.0;stroke-dasharray:7.0,7.0;"/><polygon fill="#AAAAAA" points="1818.29,1263.82,1827.91,1265.9309,1823.1881,1262.8158,1826.3032,1258.0939,1818.29,1263.82" style="stroke:#AAAAAA;stroke-width:1.0;"/></g><!--link mI to ZLo--><g id="link_mI_ZLo"><path d="M1778.01,1130.79 C1770.93,1121.77 1764.11,1111.52 1759.57,1101 C1670.24,894.09 1684.57,824.87 1684.57,599.5 C1684.57,395 1684.57,395 1684.57,395 C1684.57,366.85 1677.9011,341.9738 1669.2711,318.7638 " fill="none" id="mI-to-ZLo" style="stroke:#181818;stroke-width:1.0;"/><polygon fill="#181818" points="1667.18,313.14,1666.5674,322.9698,1668.9226,317.8265,1674.0658,320.1817,1667.18,313.14" style="stroke:#181818;stroke-width:1.0;"/><text fill="#000000" font-family="sans-serif" font-size="13" lengthAdjust="spacing" textLength="44" x="1684.57" y="673.5669">IR_ZLo</text></g><!--link mI to ZLs--><g id="link_mI_ZLs"><path d="M1873.75,1150.82 C1966.76,1134.25 2140.86,1100.1 2284.57,1054 C2297.05,1050 2304.5147,1047.3721 2317.0247,1042.3321 " fill="none" id="mI-to-ZLs" style="stroke:#FF0000;stroke-width:1.0;"/><polygon fill="#FF0000" points="2322.59,1040.09,2312.7473,1039.743,2317.9522,1041.9585,2315.7368,1047.1634,2322.59,1040.09" style="stroke:#FF0000;stroke-width:1.0;"/><text fill="#000000" font-family="sans-serif" font-size="13" lengthAdjust="spacing" textLength="43" x="2169.57" y="1097.0669">IR_ZLs</text></g><!--link ZLs to mI--><g id="link_ZLs_mI"><path d="M2325.8,1040.06 C2312.4,1045.42 2298.22,1050.41 2284.57,1054 C2173.79,1083.16 2140.17,1058.11 2028.57,1084 C1975.26,1096.37 1922.5529,1115.0719 1879.2229,1132.1319 " fill="none" id="ZLs-to-mI" style="stroke:#181818;stroke-width:1.0;"/><polygon fill="#181818" points="1873.64,1134.33,1883.4797,1134.7548,1878.2924,1132.4983,1880.5489,1127.3109,1873.64,1134.33" style="stroke:#181818;stroke-width:1.0;"/><text fill="#000000" font-family="sans-serif" font-size="13" lengthAdjust="spacing" textLength="77" x="2029.57" y="1097.0669">IR_Ex [x=0]</text></g><!--link mI to *end*--><g id="link_mI_*end*"><path d="M1807.57,1195.16 C1807.57,1215.78 1807.57,1235.53 1807.57,1249.61 " fill="none" id="mI-to-*end*" style="stroke:#AAAAAA;stroke-width:1.0;stroke-dasharray:7.0,7.0;"/><polygon fill="#AAAAAA" points="1807.57,1255.61,1811.57,1246.61,1807.57,1250.61,1803.57,1246.61,1807.57,1255.61" style="stroke:#AAAAAA;stroke-width:1.0;"/></g><!--link ZLo to *end*--><g id="link_ZLo_*end*"><path d="M1570.28,275.46 C1319.04,277.94 564.57,293.81 564.57,395 C564.57,395 564.57,395 564.57,1164 C564.57,1229.43 1667.0424,1262.0718 1790.4524,1265.5318 " fill="none" id="ZLo-to-*end*" style="stroke:#AAAAAA;stroke-width:1.0;stroke-dasharray:7.0,7.0;"/><polygon fill="#AAAAAA" points="1796.45,1265.7,1787.5656,1261.4493,1791.452,1265.5599,1787.3414,1269.4462,1796.45,1265.7" style="stroke:#AAAAAA;stroke-width:1.0;"/></g><!--link entry to start--><g id="link_entry_start"><path d="M1539.26,397.01 C1472.94,397.15 905.24,399.55 844.57,441 C743.49,510.07 729.43,580.98 753.57,701 C759.47,730.29 758.89,741.44 779.57,763 C808.67,793.33 846.7564,810.7771 881.1664,822.2171 " fill="none" id="entry-to-start" style="stroke:#181818;stroke-width:1.0;"/><polygon fill="#181818" points="886.86,824.11,879.5816,817.4749,882.1153,822.5326,877.0577,825.0664,886.86,824.11" style="stroke:#181818;stroke-width:1.0;"/></g><!--link start to _m--><g id="link_start__m"><path d="M897.88,799.87 C873.41,774.55 844.77,739.06 831.57,701 C822.25,674.13 821.49,663.6 831.57,637 C842.65,607.77 860.0403,585.2856 881.0503,564.3456 " fill="none" id="start-to-_m" style="stroke:#181818;stroke-width:1.0;"/><polygon fill="#181818" points="885.3,560.11,876.1017,563.6302,881.7586,563.6396,881.7491,569.2965,885.3,560.11" style="stroke:#181818;stroke-width:1.0;"/><text fill="#000000" font-family="sans-serif" font-size="13" lengthAdjust="spacing" textLength="16" x="832.57" y="673.5669">ab</text></g><!--link start to _m--><g id="link_start__m"><path d="M931.67,799.88 C924.25,759.48 914.95,693.8 919.57,637 C921.66,611.44 925.0672,589.0515 929.2672,566.1615 " fill="none" id="start-to-_m-1" style="stroke:#181818;stroke-width:1.0;"/><polygon fill="#181818" points="930.35,560.26,924.7914,568.3903,929.4476,565.1779,932.6601,569.8341,930.35,560.26" style="stroke:#181818;stroke-width:1.0;"/><text fill="#000000" font-family="sans-serif" font-size="13" lengthAdjust="spacing" textLength="21" x="920.57" y="673.5669">auf</text></g><!--link _m to start--><g id="link__m_start"><path d="M942.78,560.16 C944.26,583.15 945.84,611.55 946.57,637 C948.2,693.72 945.3251,753.4324 942.7251,793.8624 " fill="none" id="_m-to-start" style="stroke:#181818;stroke-width:1.0;"/><polygon fill="#181818" points="942.34,799.85,946.9093,791.1253,942.6609,794.8603,938.9258,790.6118,942.34,799.85" style="stroke:#181818;stroke-width:1.0;"/><text fill="#000000" font-family="sans-serif" font-size="13" lengthAdjust="spacing" textLength="97" x="947.57" y="673.5669">IR_ZLo [m-auf]</text></g><!--link _m to start--><g id="link__m_start"><path d="M1017.77,525 C1133.39,541.56 1341.13,578.77 1385.57,637 C1402.83,659.61 1401.88,677.69 1385.57,701 C1283.72,846.56 1160.05,723.45 996.57,793 C992.05,794.92 992.6976,794.178 988.3676,796.828 " fill="none" id="_m-to-start-1" style="stroke:#FF0000;stroke-width:1.0;"/><polygon fill="#FF0000" points="983.25,799.96,993.0145,798.6737,987.5147,797.35,988.8384,791.8502,983.25,799.96" style="stroke:#FF0000;stroke-width:1.0;"/><text fill="#000000" font-family="sans-serif" font-size="13" lengthAdjust="spacing" textLength="103" x="1398.57" y="673.5669">IR_ZLu [m-abw]</text></g><!--link _m to start--><g id="link__m_start"><path d="M863.45,560.24 C823.7,585.64 781.16,616.3 770.57,637 C734.56,707.42 819.7928,771.6945 881.8228,807.7545 " fill="none" id="_m-to-start-2" style="stroke:#FF0000;stroke-width:1.0;"/><polygon fill="#FF0000" points="887.01,810.77,881.2395,802.7887,882.6873,808.2571,877.2189,809.7049,887.01,810.77" style="stroke:#FF0000;stroke-width:1.0;"/><text fill="#000000" font-family="sans-serif" font-size="13" lengthAdjust="spacing" textLength="43" x="771.57" y="673.5669">IR_ZLs</text></g><!--link _m to _m--><g id="link__m__m"><path d="M1017.74,506.59 C1037.64,507.08 1052.57,509.55 1052.57,514 C1052.57,518.45 1043.6382,520.7723 1023.7382,521.2623 " fill="none" id="_m-to-_m" style="stroke:#181818;stroke-width:1.0;"/><polygon fill="#181818" points="1017.74,521.41,1026.8357,525.1872,1022.7385,521.2869,1026.6388,517.1897,1017.74,521.41" style="stroke:#181818;stroke-width:1.0;"/><text fill="#000000" font-family="sans-serif" font-size="13" lengthAdjust="spacing" textLength="21" x="1058.57" y="518.5669">auf</text></g><!--link _m to _m--><g id="link__m__m"><path d="M1017.62,499.35 C1054.82,497.59 1087.57,502.48 1087.57,514 C1087.57,525.52 1060.8133,530.6936 1023.6133,528.9336 " fill="none" id="_m-to-_m-1" style="stroke:#181818;stroke-width:1.0;"/><polygon fill="#181818" points="1017.62,528.65,1026.4209,533.0709,1022.6144,528.8863,1026.799,525.0798,1017.62,528.65" style="stroke:#181818;stroke-width:1.0;"/><text fill="#000000" font-family="sans-serif" font-size="13" lengthAdjust="spacing" textLength="16" x="1093.57" y="518.5669">ab</text></g><!--link _m to e--><g id="link__m_e"><path d="M1015,560.08 C1056.29,584.76 1101.2801,611.6412 1138.2301,633.7312 " fill="none" id="_m-to-e" style="stroke:#181818;stroke-width:1.0;"/><polygon fill="#181818" points="1143.38,636.81,1137.7077,628.7586,1139.0884,634.2444,1133.6027,635.6251,1143.38,636.81" style="stroke:#181818;stroke-width:1.0;"/><text fill="#000000" font-family="sans-serif" font-size="13" lengthAdjust="spacing" textLength="57" x="1090.57" y="603.0669">IR_Stopp</text></g><!--link e to e--><g id="link_e_e"><path d="M1271.24,662.5 C1291.08,662.89 1306.07,665.05 1306.07,669 C1306.07,672.95 1297.0788,674.9921 1277.2388,675.3821 " fill="none" id="e-to-e" style="stroke:#181818;stroke-width:1.0;"/><polygon fill="#181818" points="1271.24,675.5,1280.3169,679.3223,1276.239,675.4017,1280.1596,671.3239,1271.24,675.5" style="stroke:#181818;stroke-width:1.0;"/><text fill="#000000" font-family="sans-serif" font-size="13" lengthAdjust="spacing" textLength="21" x="1312.07" y="673.5669">auf</text></g><!--link e to e--><g id="link_e_e"><path d="M1271.18,656.23 C1308.21,654.56 1341.07,658.81 1341.07,669 C1341.07,679.19 1314.2039,683.7103 1277.1739,682.0403 " fill="none" id="e-to-e-1" style="stroke:#181818;stroke-width:1.0;"/><polygon fill="#181818" points="1271.18,681.77,1279.9907,686.1714,1276.1749,681.9953,1280.3511,678.1795,1271.18,681.77" style="stroke:#181818;stroke-width:1.0;"/><text fill="#000000" font-family="sans-serif" font-size="13" lengthAdjust="spacing" textLength="16" x="1347.07" y="673.5669">ab</text></g><!--link e to start--><g id="link_e_start"><path d="M1141.72,701.01 C1101.06,724.97 1044.31,759.57 996.57,793 C993.48,795.17 995.1438,793.8819 991.9938,796.2119 " fill="none" id="e-to-start" style="stroke:#181818;stroke-width:1.0;"/><polygon fill="#181818" points="987.17,799.78,996.7844,797.6438,991.1898,796.8066,992.027,791.212,987.17,799.78" style="stroke:#181818;stroke-width:1.0;"/><text fill="#000000" font-family="sans-serif" font-size="13" lengthAdjust="spacing" textLength="54" x="1120.57" y="744.0669">IR_Store</text><text fill="#000000" font-family="sans-serif" font-size="13" lengthAdjust="spacing" textLength="118" x="1088.57" y="759.1997">store(SchrittZ, ex)</text></g><!--link e to exit--><g id="link_e_exit"><path d="M1218.65,701.1 C1274.97,777.03 1413.1747,963.3315 1438.1947,997.0515 " fill="none" id="e-to-exit" style="stroke:#181818;stroke-width:1.0;"/><polygon fill="#181818" points="1441.77,1001.87,1439.6194,992.2588,1438.7906,997.8546,1433.1948,997.0258,1441.77,1001.87" style="stroke:#181818;stroke-width:1.0;"/><text fill="#000000" font-family="sans-serif" font-size="13" lengthAdjust="spacing" textLength="49" x="1353.57" y="843.5669">IR_Prog</text></g><!--link start to exit--><g id="link_start_exit"><path d="M983.15,878.05 C987.53,880.98 992.04,883.69 996.57,886 C1164.19,971.38 1392.68,1000.8885 1433.45,1005.6185 " fill="none" id="start-to-exit" style="stroke:#181818;stroke-width:1.0;"/><polygon fill="#181818" points="1439.41,1006.31,1430.9309,1001.2995,1434.4433,1005.7338,1430.009,1009.2462,1439.41,1006.31" style="stroke:#181818;stroke-width:1.0;"/><text fill="#000000" font-family="sans-serif" font-size="13" lengthAdjust="spacing" textLength="49" x="1102.57" y="928.0669">IR_Prog</text></g><!--link ZLo to entry--><g id="link_ZLo_entry"><path d="M1617.06,313.3 C1592.58,341.28 1565.6722,372.0356 1554.1422,385.2056 " fill="none" id="ZLo-to-entry" style="stroke:#181818;stroke-width:1.0;"/><polygon fill="#181818" points="1550.19,389.72,1559.128,385.5832,1553.4835,385.958,1553.1088,380.3136,1550.19,389.72" style="stroke:#181818;stroke-width:1.0;"/><text fill="#000000" font-family="sans-serif" font-size="13" lengthAdjust="spacing" textLength="49" x="1589.57" y="356.0669">IR_Prog</text></g><!--link entry to *end*--><g id="link_entry_*end*"><path d="M1547.63,402.04 C1550.82,410.11 1556.87,426.5 1559.57,441 C1586.5,585.45 1531.68,970.69 1599.57,1101 C1645.79,1189.7 1757.619,1244.1616 1792.289,1259.4316 " fill="none" id="entry-to-*end*" style="stroke:#AAAAAA;stroke-width:1.0;stroke-dasharray:7.0,7.0;"/><polygon fill="#AAAAAA" points="1797.78,1261.85,1791.1558,1254.5617,1793.2042,1259.8346,1787.9312,1261.883,1797.78,1261.85" style="stroke:#AAAAAA;stroke-width:1.0;"/></g><!--link exit to mI--><g id="link_exit_mI"><path d="M1451.58,1012.29 C1474.59,1024.83 1559.48,1070.41 1632.57,1101 C1667.89,1115.78 1702.497,1128.1052 1735.517,1139.0952 " fill="none" id="exit-to-mI" style="stroke:#181818;stroke-width:1.0;"/><polygon fill="#181818" points="1741.21,1140.99,1733.9337,1134.3525,1736.4659,1139.411,1731.4074,1141.9431,1741.21,1140.99" style="stroke:#181818;stroke-width:1.0;"/><text fill="#000000" font-family="sans-serif" font-size="13" lengthAdjust="spacing" textLength="77" x="1633.57" y="1097.0669">IR_Ex [x=0]</text></g><!--SRC=[VLNDRXen4BxlKup8PGbPXLnw804fRJcWqYg2dg086V2oLi56_b6shVesUOpUyc8Tp_x39Xp0VDytzinuPcmiinmwYodChJgTEi0CBAOcC2N-ACqsEO3QS0aHZFkvH1MIhyeg3OVN5nTRuevj39fEfCW5ao0OfmDuT35m8Rc6CMxE8RoBxZvquQICi499mRKbtKUkkR0Gl_xJC9lXtvWd1sB8Pmvqq3qX1bSyd6yJBQnTT14Kya97K2uPQivs8Genf7DX1XN2VWvS787v6i0tPIEoXgdO9XPpffdyoMN6DlSz3b24ETdpn4AYjWc4lHiuHip5NK-g7UP4Esdn9uo8sJmJCxTCs_e-XHkzQ7Y7m6H0QHRi80pcpyazOQNAYuBbzGgYQ0IO1vyBY9OxPXA-kxbYZAsGG456u9f2dipM_iOBZ8wPhSSfBDDXlzBIbUH70MB5EXodNRoTpBOo7NdJj7t7z0slql8Wyib0k71xB8sNH5jVJ70Bp1dC5TfVQRvRKGWcbpjOKYvNnBVitpGh8oSp5nD_7kUm6MRxmSQNGVkHH5mcvZYvIB-7tjwx9Ojaq7gaUeUuzALeQ6fJ6Nt1wjhehBoeeKzQxNEDNyAV0F3prdnO7-jqrlhFU847BeddTPeAdc3ZLq6DuoaEXOS7vUp9sISXHwCwAQt-XQoGvwIs0_ZEK_pkP8EbKsUcdpxxChglOytc9MRTtiBKm0L_tiLiKt7DFYxHHZDxb0_osNZ4M7ktKP6eWcnnBOlStsAMiJ8GmlmnRDC6kZZturreKqVo_9prI4t0YIGdIxYiuBfrrPZloamMOR5tuM05R6h_AyEvdzW_P7Dmts01TUlcM4waVlBLt4nGa_iRb8r2oQwOFFTjhKNLsjQaWLHO2LhiiP1KJ4FPyzSuM2Q-ThGxMPngSouDzj5jyVpbUmoh5p6lb1IO_EsCvOvht0fVy27WZ3nWjGP05eKkxFlt5ftUWVSX-0y0]--></g></svg>